name analog
datacolumns 19
datarows 64
range 0.1895 0.221
endheader
time	ground_force_vx	ground_force_vy	ground_force_vz	ground_force_px	ground_force_py	ground_force_pz	l_ground_force_vx	l_ground_force_vy	l_ground_force_vz	l_ground_force_px	l_ground_force_py	l_ground_force_pz	ground_torque_x	ground_torque_y	ground_torque_z	l_ground_torque_x	l_ground_torque_y	l_ground_torque_z
0.1895	-0.0	-0.0	-0.0	-10.738554954528809	13.0871000289917	-792.02099609375	-0.0	-0.0	-0.0	-0.0	-0.0	-0.0	-0.0	-0.0	-0.0	-0.0	-0.0	-0.0
0.19	-0.0	-0.0	-0.0	-9.764816284179688	12.4857177734375	-796.9652709960938	-0.0	-0.0	-0.0	-0.0	-0.0	-0.0	-0.0	-0.0	-0.0	-0.0	-0.0	-0.0
0.1905	-0.0	-0.0	-0.0	-8.605116844177246	11.174781799316406	-799.7612915039062	-0.0	-0.0	-0.0	-0.0	-0.0	-0.0	-0.0	-0.0	-0.0	-0.0	-0.0	-0.0
0.191	-0.0	-0.0	-0.0	-7.82115364074707	9.47404670715332	-803.0853881835938	-0.0	-0.0	-0.0	-0.0	-0.0	-0.0	-0.0	-0.0	-0.0	-0.0	-0.0	-0.0
0.1915	-0.0	-0.0	-0.0	-6.78726863861084	8.337324142456055	-805.3366088867188	-0.0	-0.0	-0.0	-0.0	-0.0	-0.0	-0.0	-0.0	-0.0	-0.0	-0.0	-0.0
0.192	-0.0	-0.0	-0.0	-5.263420104980469	8.192806243896484	-805.6033935546875	-0.0	-0.0	-0.0	-0.0	-0.0	-0.0	-0.0	-0.0	-0.0	-0.0	-0.0	-0.0
0.1925	-0.0	-0.0	-0.0	-4.94045352935791	8.248135566711426	-805.6317749023438	-0.0	-0.0	-0.0	-0.0	-0.0	-0.0	-0.0	-0.0	-0.0	-0.0	-0.0	-0.0
0.193	-0.0	-0.0	-0.0	-4.845688819885254	7.857623100280762	-806.9320678710938	-0.0	-0.0	-0.0	-0.0	-0.0	-0.0	-0.0	-0.0	-0.0	-0.0	-0.0	-0.0
0.1935	-0.0	-0.0	-0.0	-4.055574417114258	7.493954658508301	-805.658935546875	-0.0	-0.0	-0.0	-0.0	-0.0	-0.0	-0.0	-0.0	-0.0	-0.0	-0.0	-0.0
0.194	-0.0	-0.0	-0.0	-4.419397830963135	7.425016403198242	-805.4130249023438	-0.0	-0.0	-0.0	-0.0	-0.0	-0.0	-0.0	-0.0	-0.0	-0.0	-0.0	-0.0
0.1945	-0.0	-0.0	-0.0	-4.089919090270996	7.637839317321777	-805.0872802734375	-0.0	-0.0	-0.0	-0.0	-0.0	-0.0	-0.0	-0.0	-0.0	-0.0	-0.0	-0.0
0.195	-0.0	-0.0	-0.0	-4.103683471679688	7.89144229888916	-803.7013549804688	-0.0	-0.0	-0.0	-0.0	-0.0	-0.0	-0.0	-0.0	-0.0	-0.0	-0.0	-0.0
0.1955	-0.0	-0.0	-0.0	-5.057286739349365	7.932605743408203	-803.5673217773438	-0.0	-0.0	-0.0	-0.0	-0.0	-0.0	-0.0	-0.0	-0.0	-0.0	-0.0	-0.0
0.196	-0.0	-0.0	-0.0	-5.537735939025879	8.460709571838379	-803.647705078125	-0.0	-0.0	-0.0	-0.0	-0.0	-0.0	-0.0	-0.0	-0.0	-0.0	-0.0	-0.0
0.1965	-0.0	-0.0	-0.0	-5.750771999359131	9.00877571105957	-800.063720703125	-0.0	-0.0	-0.0	-0.0	-0.0	-0.0	-0.0	-0.0	-0.0	-0.0	-0.0	-0.0
0.197	-0.0	-0.0	-0.0	-6.710437297821045	8.343507766723633	-797.2388916015625	-0.0	-0.0	-0.0	-0.0	-0.0	-0.0	-0.0	-0.0	-0.0	-0.0	-0.0	-0.0
0.1975	-0.0	-0.0	-0.0	-7.376082897186279	7.973930835723877	-795.1718139648438	-0.0	-0.0	-0.0	-0.0	-0.0	-0.0	-0.0	-0.0	-0.0	-0.0	-0.0	-0.0
0.198	-0.0	-0.0	-0.0	-7.939735412597656	7.747937202453613	-793.973876953125	-0.0	-0.0	-0.0	-0.0	-0.0	-0.0	-0.0	-0.0	-0.0	-0.0	-0.0	-0.0
0.1985	-0.0	-0.0	-0.0	-9.016602516174316	7.45189094543457	-793.7593383789062	-0.0	-0.0	-0.0	-0.0	-0.0	-0.0	-0.0	-0.0	-0.0	-0.0	-0.0	-0.0
0.199	-0.0	-0.0	-0.0	-9.813156127929688	7.630073547363281	-793.5454711914062	-0.0	-0.0	-0.0	-0.0	-0.0	-0.0	-0.0	-0.0	-0.0	-0.0	-0.0	-0.0
0.1995	-0.0	-0.0	-0.0	-10.33598804473877	7.980276107788086	-793.1024780273438	-0.0	-0.0	-0.0	-0.0	-0.0	-0.0	-0.0	-0.0	-0.0	-0.0	-0.0	-0.0
0.2	-0.0	-0.0	-0.0	-10.657584190368652	7.926468372344971	-793.61962890625	-0.0	-0.0	-0.0	-0.0	-0.0	-0.0	-0.0	-0.0	-0.0	-0.0	-0.0	-0.0
0.2005	-0.0	-0.0	-0.0	-10.717459678649902	7.623696327209473	-793.948486328125	-0.0	-0.0	-0.0	-0.0	-0.0	-0.0	-0.0	-0.0	-0.0	-0.0	-0.0	-0.0
0.201	-0.0	-0.0	-0.0	-10.71128749847412	7.1183905601501465	-794.3016357421875	-0.0	-0.0	-0.0	-0.0	-0.0	-0.0	-0.0	-0.0	-0.0	-0.0	-0.0	-0.0
0.2015	-0.0	-0.0	-0.0	-10.300837516784668	6.589701652526856	-796.2559814453125	-0.0	-0.0	-0.0	-0.0	-0.0	-0.0	-0.0	-0.0	-0.0	-0.0	-0.0	-0.0
0.202	-0.0	-0.0	-0.0	-9.807262420654297	5.740077972412109	-799.9758911132812	-0.0	-0.0	-0.0	-0.0	-0.0	-0.0	-0.0	-0.0	-0.0	-0.0	-0.0	-0.0
0.2025	-0.0	-0.0	-0.0	-9.307945251464844	4.932197570800781	-803.1080932617188	-0.0	-0.0	-0.0	-0.0	-0.0	-0.0	-0.0	-0.0	-0.0	-0.0	-0.0	-0.0
0.203	-0.0	-0.0	-0.0	-8.17138385772705	3.815377950668335	-805.7913818359375	-0.0	-0.0	-0.0	-0.0	-0.0	-0.0	-0.0	-0.0	-0.0	-0.0	-0.0	-0.0
0.20350000000000001	-0.0	-0.0	-0.0	-6.715426445007324	2.3762049674987797	-808.5941772460938	-0.0	-0.0	-0.0	-0.0	-0.0	-0.0	-0.0	-0.0	-0.0	-0.0	-0.0	-0.0
0.20400000000000001	-0.0	-0.0	-0.0	-5.1742095947265625	1.5738492012023926	-811.209716796875	-0.0	-0.0	-0.0	-0.0	-0.0	-0.0	-0.0	-0.0	-0.0	-0.0	-0.0	-0.0
0.20450000000000002	-0.0	-0.0	-0.0	-3.7775490283966064	0.6072505712509155	-816.1988525390625	-0.0	-0.0	-0.0	-0.0	-0.0	-0.0	-0.0	-0.0	-0.0	-0.0	-0.0	-0.0
0.20500000000000002	-0.0	-0.0	-0.0	-2.324970245361328	-0.3366709053516388	-817.0709228515625	-0.0	-0.0	-0.0	-0.0	-0.0	-0.0	-0.0	-0.0	-0.0	-0.0	-0.0	-0.0
0.20550000000000002	-0.0	-0.0	-0.0	-1.6057891845703125	-1.127702236175537	-818.7723999023438	-0.0	-0.0	-0.0	-0.0	-0.0	-0.0	-0.0	-0.0	-0.0	-0.0	-0.0	-0.0
0.20600000000000002	-0.0	-0.0	-0.0	-1.5219395160675049	-1.1952263116836548	-818.6498413085938	-0.0	-0.0	-0.0	-0.0	-0.0	-0.0	-0.0	-0.0	-0.0	-0.0	-0.0	-0.0
0.20650000000000002	-0.0	-0.0	-0.0	-1.8839967250823972	-1.315822958946228	-818.4840087890625	-0.0	-0.0	-0.0	-0.0	-0.0	-0.0	-0.0	-0.0	-0.0	-0.0	-0.0	-0.0
0.20700000000000002	-0.0	-0.0	-0.0	-2.3299474716186523	-0.7025784254074097	-816.0326538085938	-0.0	-0.0	-0.0	-0.0	-0.0	-0.0	-0.0	-0.0	-0.0	-0.0	-0.0	-0.0
0.20750000000000002	-0.0	-0.0	-0.0	-3.1747195720672607	-0.1576223969459533	-812.7925415039062	-0.0	-0.0	-0.0	-0.0	-0.0	-0.0	-0.0	-0.0	-0.0	-0.0	-0.0	-0.0
0.20800000000000002	-0.0	-0.0	-0.0	-3.952047824859619	1.3420428037643433	-810.6741333007812	-0.0	-0.0	-0.0	-0.0	-0.0	-0.0	-0.0	-0.0	-0.0	-0.0	-0.0	-0.0
0.2085	-0.0	-0.0	-0.0	-5.115276336669922	2.9513864517211914	-810.1748046875	-0.0	-0.0	-0.0	-0.0	-0.0	-0.0	-0.0	-0.0	-0.0	-0.0	-0.0	-0.0
0.209	-0.0	-0.0	-0.0	-6.606551170349121	3.654346466064453	-808.9881591796875	-0.0	-0.0	-0.0	-0.0	-0.0	-0.0	-0.0	-0.0	-0.0	-0.0	-0.0	-0.0
0.2095	-0.0	-0.0	-0.0	-8.306378364562988	4.518221378326416	-806.8104858398438	-0.0	-0.0	-0.0	-0.0	-0.0	-0.0	-0.0	-0.0	-0.0	-0.0	-0.0	-0.0
0.21	-0.0	-0.0	-0.0	-9.907214164733888	5.718876361846924	-806.68212890625	-0.0	-0.0	-0.0	-0.0	-0.0	-0.0	-0.0	-0.0	-0.0	-0.0	-0.0	-0.0
0.2105	-0.0	-0.0	-0.0	-11.015110969543455	5.877835750579834	-808.205078125	-0.0	-0.0	-0.0	-0.0	-0.0	-0.0	-0.0	-0.0	-0.0	-0.0	-0.0	-0.0
0.211	-0.0	-0.0	-0.0	-11.82744598388672	6.32356071472168	-808.763427734375	-0.0	-0.0	-0.0	-0.0	-0.0	-0.0	-0.0	-0.0	-0.0	-0.0	-0.0	-0.0
0.2115	-0.0	-0.0	-0.0	-13.484736442565918	5.882606506347656	-811.6075439453125	-0.0	-0.0	-0.0	-0.0	-0.0	-0.0	-0.0	-0.0	-0.0	-0.0	-0.0	-0.0
0.212	-0.0	-0.0	-0.0	-13.287789344787598	4.817614555358887	-815.86376953125	-0.0	-0.0	-0.0	-0.0	-0.0	-0.0	-0.0	-0.0	-0.0	-0.0	-0.0	-0.0
0.2125	-0.0	-0.0	-0.0	-12.982380867004396	3.9307374954223633	-820.6403198242188	-0.0	-0.0	-0.0	-0.0	-0.0	-0.0	-0.0	-0.0	-0.0	-0.0	-0.0	-0.0
0.213	-0.0	-0.0	-0.0	-12.986791610717772	2.8477351665496826	-824.392333984375	-0.0	-0.0	-0.0	-0.0	-0.0	-0.0	-0.0	-0.0	-0.0	-0.0	-0.0	-0.0
0.2135	-0.0	-0.0	-0.0	-12.433919906616213	1.965243458747864	-831.0497436523438	-0.0	-0.0	-0.0	-0.0	-0.0	-0.0	-0.0	-0.0	-0.0	-0.0	-0.0	-0.0
0.214	-0.0	-0.0	-0.0	-11.470008850097656	1.2607311010360718	-833.185546875	-0.0	-0.0	-0.0	-0.0	-0.0	-0.0	-0.0	-0.0	-0.0	-0.0	-0.0	-0.0
0.2145	-0.0	-0.0	-0.0	-11.100358963012695	0.9677473902702332	-838.4994506835938	-0.0	-0.0	-0.0	-0.0	-0.0	-0.0	-0.0	-0.0	-0.0	-0.0	-0.0	-0.0
0.215	-0.0	-0.0	-0.0	-10.97707462310791	0.2249152511358261	-839.8619384765625	-0.0	-0.0	-0.0	-0.0	-0.0	-0.0	-0.0	-0.0	-0.0	-0.0	-0.0	-0.0
0.2155	-0.0	-0.0	-0.0	-10.395078659057615	-0.1782608032226562	-841.443115234375	-0.0	-0.0	-0.0	-0.0	-0.0	-0.0	-0.0	-0.0	-0.0	-0.0	-0.0	-0.0
0.216	-0.0	-0.0	-0.0	-9.940917015075684	-0.2714240849018097	-842.5507202148438	-0.0	-0.0	-0.0	-0.0	-0.0	-0.0	-0.0	-0.0	-0.0	-0.0	-0.0	-0.0
0.2165	-0.0	-0.0	-0.0	-9.600090980529783	-0.7476565837860107	-841.274658203125	-0.0	-0.0	-0.0	-0.0	-0.0	-0.0	-0.0	-0.0	-0.0	-0.0	-0.0	-0.0
0.217	-0.0	-0.0	-0.0	-8.97152328491211	-0.2712991237640381	-838.418212890625	-0.0	-0.0	-0.0	-0.0	-0.0	-0.0	-0.0	-0.0	-0.0	-0.0	-0.0	-0.0
0.2175	-0.0	-0.0	-0.0	-9.002584457397461	0.6124075055122375	-836.8674926757812	-0.0	-0.0	-0.0	-0.0	-0.0	-0.0	-0.0	-0.0	-0.0	-0.0	-0.0	-0.0
0.218	-0.0	-0.0	-0.0	-8.343079566955566	0.9993826150894164	-832.260986328125	-0.0	-0.0	-0.0	-0.0	-0.0	-0.0	-0.0	-0.0	-0.0	-0.0	-0.0	-0.0
0.2185	-0.0	-0.0	-0.0	-8.378347396850586	2.2709667682647705	-828.1922607421875	-0.0	-0.0	-0.0	-0.0	-0.0	-0.0	-0.0	-0.0	-0.0	-0.0	-0.0	-0.0
0.219	-0.0	-0.0	-0.0	-8.246500968933105	2.51022744178772	-821.8352661132812	-0.0	-0.0	-0.0	-0.0	-0.0	-0.0	-0.0	-0.0	-0.0	-0.0	-0.0	-0.0
0.2195	-0.0	-0.0	-0.0	-8.032541275024414	3.611577033996582	-817.41357421875	-0.0	-0.0	-0.0	-0.0	-0.0	-0.0	-0.0	-0.0	-0.0	-0.0	-0.0	-0.0
0.22	-0.0	-0.0	-0.0	-8.467954635620117	4.456520080566406	-810.88720703125	-0.0	-0.0	-0.0	-0.0	-0.0	-0.0	-0.0	-0.0	-0.0	-0.0	-0.0	-0.0
0.2205	-0.0	-0.0	-0.0	-9.149250984191896	5.532977104187012	-804.7545776367188	-0.0	-0.0	-0.0	-0.0	-0.0	-0.0	-0.0	-0.0	-0.0	-0.0	-0.0	-0.0
0.221	-0.0	-0.0	-0.0	-9.106245994567873	6.374515533447266	-798.539794921875	-0.0	-0.0	-0.0	-0.0	-0.0	-0.0	-0.0	-0.0	-0.0	-0.0	-0.0	-0.0
